<?xml version="1.0" encoding="utf-8"?>
<!-- Generator: Adobe Illustrator 16.0.4, SVG Export Plug-In . SVG Version: 6.00 Build 0)  -->
<!DOCTYPE svg PUBLIC "-//W3C//DTD SVG 1.1//EN" "http://www.w3.org/Graphics/SVG/1.1/DTD/svg11.dtd">
<svg version="1.1" id="レイヤー_1" xmlns="http://www.w3.org/2000/svg" xmlns:xlink="http://www.w3.org/1999/xlink" x="0px"
	 y="0px" width="168.541px" height="171px" viewBox="0 0 168.541 171" enable-background="new 0 0 168.541 171"
	 xml:space="preserve">
<g id="XMLID_1_">
	<g>
		<path d="M61.431,19.89v0.01c-17.09,5.96-31.97,18.47-42.8,35.22c0-30.47,10.51-55.12,23.5-55.12
			C50.331,0,57.501,7.97,61.431,19.89z"/>
		<path d="M149.941,55.16c-10.87-16.82-25.82-29.37-42.99-35.32C110.911,7.95,118.111,0,126.351,0c13.07,0,23.65,24.65,23.65,55.12
			L149.941,55.16z"/>
	</g>
	<g>
		<path fill="none" stroke="#000000" stroke-miterlimit="10" d="M0.001,121c0,27.64,37.69,50,84.27,50"/>
		<path fill="none" stroke="#000000" stroke-miterlimit="10" d="M168.541,121c0,27.64-37.69,50-84.27,50"/>
		<path fill="none" stroke="#000000" stroke-miterlimit="10" d="M0.001,121c0-24.96,6.97-47.87,18.63-65.88
			c10.83-16.75,25.71-29.26,42.8-35.22c7.26-2.54,14.92-3.9,22.84-3.9"/>
		<path fill="none" stroke="#000000" stroke-miterlimit="10" d="M18.631,55.12c0-30.47,10.51-55.12,23.5-55.12"/>
		<path fill="none" stroke="#000000" stroke-miterlimit="10" d="M61.431,19.89C57.501,7.97,50.331,0,42.131,0"/>
		<path fill="none" stroke="#000000" stroke-miterlimit="10" d="M168.541,121c0-24.94-6.96-47.84-18.6-65.84
			c-10.87-16.82-25.82-29.37-42.99-35.32c-7.22-2.5-14.82-3.84-22.68-3.84"/>
		<path fill="none" stroke="#000000" stroke-miterlimit="10" d="M150.001,55.12c0-30.47-10.58-55.12-23.65-55.12"/>
		<path fill="none" stroke="#000000" stroke-miterlimit="10" d="M106.931,19.89c0.01-0.02,0.01-0.03,0.02-0.05
			C110.911,7.95,118.111,0,126.351,0"/>
	</g>
</g>
<ellipse transform="matrix(-0.7612 -0.6485 0.6485 -0.7612 44.3005 168.3114)" stroke="#000000" stroke-miterlimit="10" cx="53.136" cy="76" rx="11" ry="17"/>
<ellipse transform="matrix(-0.7889 0.6146 -0.6146 -0.7889 255.3618 64.2727)" stroke="#000000" stroke-miterlimit="10" cx="116.641" cy="76" rx="11" ry="17"/>
<polygon stroke="#000000" stroke-miterlimit="10" points="75.598,102.414 84.271,110.836 92.944,102.414 "/>
</svg>
